<mxfile host="app.diagrams.net" modified="2023-09-05T17:56:00.857Z" agent="Mozilla/5.0 (X11; Ubuntu; Linux x86_64; rv:109.0) Gecko/20100101 Firefox/116.0" version="21.7.2" etag="gM1kIfMDfniQgkGcu_c8" type="github">
  <diagram name="Page-1" id="NnA2QwZdiPbJdotaG1_8">
    <mxGraphModel>
      <root>
        <mxCell id="0" />
        <mxCell id="1" parent="0" />
      </root>
    </mxGraphModel>
  </diagram>
</mxfile>
